<svg version="1.1" id="Layer_1" xmlns:x="ns_extend;" xmlns:i="ns_ai;" xmlns:graph="ns_graphs;" xmlns="http://www.w3.org/2000/svg" xmlns:xlink="http://www.w3.org/1999/xlink" x="0px" y="0px" viewBox="0 0 529.7 97" style="enable-background:new 0 0 529.7 97;" xml:space="preserve">
 <style type="text/css">
  .st0{fill-rule:evenodd;clip-rule:evenodd;}
 </style>
 <metadata>
  <sfw xmlns="ns_sfw;">
   <slices>
   </slices>
   <sliceSourceBounds bottomLeftOrigin="true" height="97" width="529.7" x="-161.5" y="-29.6">
   </sliceSourceBounds>
  </sfw>
 </metadata>
 <g>
  <g>
   <path class="st0" d="M229.6,9.4h6.5V0h-6.5V9.4z M229.6,77.3h6.5V21.6h-6.5V77.3z">
   </path>
   <path class="st0" d="M251.2,77.3V21.6h6.5v8.5c5.8-6,10-9.5,18.8-9.5c6.3,0,12.1,4,13.7,10.2c5.1-5.9,10.6-10.2,18.7-10.2
			c9.9,0,14.9,5.4,14.9,15.1v41.6h-6.5V35c0-6.2-3.5-9.3-9.8-9.3c-5,0-13.3,5.2-16.8,10.6v41h-6.5V35c0-6.2-3.5-9.3-9.8-9.3
			c-5,0-13.3,5.2-16.8,10.6v41H251.2z">
   </path>
   <path class="st0" d="M369,45.8c-25.9,5.6-29.4,10.8-29.4,17.9c0,6.1,4.2,9.5,10.1,9.5c6.1,0,13.6-3.5,19.3-9.2V45.8z M370.1,77.3
			l-0.9-6.7c-6.8,5.2-11.9,7.8-20.6,7.8c-8.8,0-15.6-5.4-15.6-14.6c0-15.2,12.6-18,36.3-23.1v-3.9c0-7.4-3.3-11.1-13-11.1
			c-6.8,0-12.3,3.6-16.4,10.1l-4.4-2.6c4.9-9,11.9-12.6,21-12.6c12.9,0,18.9,5.1,18.9,17.5v29.1c0,2.8,0.2,6.4,0.9,10.2H370.1z">
   </path>
   <path class="st0" d="M408.1,53.9c9.1,0,14.7-4.3,14.7-13.9c0-9.7-5.6-14.2-14.7-14.2c-9.1,0-14.7,5.6-14.7,14.2
			C393.4,49.6,400.2,53.9,408.1,53.9L408.1,53.9z M390.7,82.7c0,5.5,5.4,9.2,17.2,9.2c14.2,0,20.3-3.7,20.3-9.5
			c0-4.6-3.7-9.1-20.7-9.1C394.6,73.2,390.7,77.8,390.7,82.7L390.7,82.7z M434.4,25.3c-2.9,0-6.8,0.3-9,2.6c2.5,3,4,6.3,4,11.7
			c0,13.7-9.9,19.5-21.9,19.5c-3.6,0-6.3-0.8-9.1-1.7c-3.6,1.3-5.2,3.3-5.2,5.4c0,3.2,2.2,4.8,17.5,4.8c17,0,24.1,5.4,24.1,14.5
			c0,8.1-6.3,15.1-25.8,15.1s-24.7-6.5-24.7-13.2c0-4.8,2-8.9,9.9-11.8v-0.2c-4.1-0.9-7.5-2.6-7.5-7.3c0-4.7,4.4-8.6,8.5-9.4
			c-5.1-3.4-8.2-8.8-8.2-14.6c0-12.2,8.7-20,22.4-20c5.4,0,9.6,1.5,13.2,3.9c3.3-3.2,7.4-4.9,11.9-4.9V25.3z">
   </path>
   <path class="st0" d="M477.1,44.5c-1.3-11.5-6.4-18.7-16.3-18.8c-11.5-0.1-16.4,11.5-16.6,18.8H477.1z M444.2,49.7
			c0,12.6,5.3,23.6,18.2,23.6c7.3,0,10.9-2.5,16.6-11.2l5.3,2.8c-6.1,9.9-11.7,13.6-22.4,13.6c-14.8,0-24.2-9.3-24.2-28.9
			c0-17.2,8.9-28.9,23.3-28.9c15.4,0,22.7,11.9,22.7,29.1H444.2z">
   </path>
   <path class="st0" d="M493,63.8c5.3,7.5,10.1,9.4,17.5,9.4c7.2,0,12.6-4.6,12.6-10.6c0-16.2-33.3-7.1-33.3-26.9
			c0-10.5,8.4-15.2,18-15.2c9.5,0,15.5,3.6,19.5,10.1l-5,3.4c-3.8-5.1-7.9-8.4-14.7-8.4c-6.3,0-11.2,3-11.2,9.7
			c0,13.6,33.3,5.6,33.3,27.2c0,10-9.4,15.7-19.6,15.7c-8.7,0-16.6-3.4-21.9-11.2L493,63.8z">
   </path>
   <path class="st0" d="M23.4,31.3c-5.5,0-9.4,4-9.4,9c0,5,3.9,9,9.4,9c4.9,0,8.8-4,8.8-9C32.3,35.3,28.3,31.3,23.4,31.3L23.4,31.3z
			 M11.9,82.1c0,4.2,3.5,6,14.4,6c8.3,0,11.1-4.2,11.1-6c0-2.5-3.9-6.2-16.3-6.2C14,75.9,11.9,79.8,11.9,82.1L11.9,82.1z M49.6,30.5
			c-3,0-6.4,0-8.3,1.3c1.7,2.3,2.9,5.4,2.9,9.6c0,10.2-6.9,17.5-20.4,17.5c-5.6,0-10.1,0.2-10.1,3.3c0,8.7,35.6-3.1,35.6,18.5
			c0,7.7-7.8,16-25.1,16C9.6,96.7,0,92.3,0,83.8c0-6.8,5.1-10,9.8-10v-0.2c-2.5-1.6-8-2.9-8-8.7c0-5.2,6-9.2,8.4-9.9
			c-4.5-3.6-8-7.8-8-14.4c0-9.5,7.3-18.8,21.3-18.8c4.6,0,10,1.9,13.3,4.8c2.5-3.3,6.6-5,12.7-4.8V30.5z">
   </path>
   <path class="st0" d="M84.7,43.2c-0.2-7.5-4.2-11.9-10.4-11.9c-6.2,0-10.2,4.4-10.4,11.9H84.7z M63.8,51.9
			C64,63.2,69,67.6,75.1,67.6c6,0,8.8-2.7,12.1-6.5l9.4,5.8c-5,7.7-12.3,11-22.7,11C59.8,78,50.9,67,50.9,49.9s8.8-28.1,23.5-28.1
			c14.2-0.1,22.1,11.9,22.1,24.9v5.3H63.8z">
   </path>
   <path class="st0" d="M175.6,85.7c2,0.4,3.5,0.4,5.4,0.4c4.5,0,7-1.3,8.5-4.3c1.2-2.6,2.1-4.2,2.1-6.4c0-2-1-4.3-1.7-6.5
			l-14.5-46.2h13l9,33.3h0.2l9.3-33.3h12.9L202.8,77c-5.7,15.5-10.3,19.7-20.9,19.7c-3.1,0-4.7-0.2-6.2-0.4V85.7z">
   </path>
   <path class="st0" d="M107.2,22.9V6.3h14.2v16.7H133v10.4h-11.7V64c0,2.9,1.6,3.7,5.2,3.7c2.2,0,4.5-0.6,6.5-1v10.6
			c-3.9,0.4-7.3,0.8-11.2,0.8c-10.5,0-14.7-4.8-14.7-12.5V33.4h-8.2V22.9H107.2z">
   </path>
   <path class="st0" d="M144.3,22.9V6.3h14.2v16.7h11.7v10.4h-11.7V64c0,2.9,1.6,3.7,5.2,3.7c2.2,0,4.5-0.6,6.5-1v10.6
			c-3.9,0.4-7.3,0.8-11.2,0.8c-10.5,0-14.7-4.8-14.7-12.5V33.4h-8.2V22.9H144.3z">
   </path>
  </g>
 </g>
</svg>